<?xml version="1.0" encoding="UTF-8"?>
<svg id="Layer_1" data-name="Layer 1" xmlns="http://www.w3.org/2000/svg" version="1.1" viewBox="0 0 232 232">
  <defs>
    <style>
      .cls-1 {
        fill: #ffeeed;
      }

      .cls-1, .cls-2, .cls-3 {
        stroke-width: 0px;
      }

      .cls-4 {
        font-family: Helvetica-Bold, Helvetica;
        font-size: 26px;
        font-weight: 700;
      }

      .cls-4, .cls-5 {
        isolation: isolate;
      }

      .cls-4, .cls-3 {
        fill: #fff;
      }

      .cls-2 {
        fill: #ff584f;
      }
    </style>
  </defs>
  <g id="Group_10" data-name="Group 10">
    <rect id="Rectangle_34" data-name="Rectangle 34" class="cls-2" width="232" height="232"/>
    <g id="ANGULAR_MATERIAL_DESIGN_SYSTEM_KITCHEN_SINK" data-name="ANGULAR MATERIAL DESIGN SYSTEM KITCHEN SINK" class="cls-5">
      <text class="cls-4" transform="translate(31 44)"><tspan x="0" y="0">COMPONENTS</tspan></text>
      <text class="cls-4" transform="translate(83.6 69)"><tspan x="0" y="0">MATERIAL</tspan></text>
      <text class="cls-4" transform="translate(116.3 94)"><tspan x="0" y="0">DESIGN</tspan></text>
      <text class="cls-4" transform="translate(109.1 119)"><tspan x="0" y="0">SYSTEM</tspan></text>
      <text class="cls-4" transform="translate(100.4 144)"><tspan x="0" y="0">KITCHEN</tspan></text>
      <text class="cls-4" transform="translate(153.9 169)"><tspan x="0" y="0">SINK</tspan></text>
    </g>
    <path id="Sass_Logo_Color" data-name="Sass Logo Color" class="cls-3" d="M105.5,198.8c-1.5,0-3,.3-4.4,1-.4-.7-.7-1.5-1-2.3-.1-.6-.2-1.3,0-1.9.2-.7.3-1.4.6-2.1,0,0-.1-.5-1.1-.5s-1.8.2-1.9.4c-.2.5-.3,1-.4,1.4-.8,2-1.8,3.9-3,5.7-.3-.5-.5-1.1-.7-1.7-.1-.6-.2-1.3,0-1.9.2-.7.3-1.4.6-2.1,0,0-.1-.5-1.1-.5s-1.8.2-1.9.4-.2.9-.4,1.4-2.6,5.8-3.2,7.2c-.3.7-.6,1.3-.8,1.6h0s0,0,0,0c-.2.3-.3.5-.3.5h0c-.1.2-.3.5-.3.5-.1-.5-.1-1,0-1.5.4-1.8,1.2-4.7,1.2-4.8,0,0,.2-.5-.5-.8-.3-.2-.7,0-1,.2,0,0-.1.1-.1.1,0,0,.8-3.2-1.4-3.2s-3.3,1.5-4.3,2.9c-.6.3-1.9,1-3.3,1.8-.5.3-1.1.6-1.6.8,0,0,0,0-.1-.1-2.7-2.9-7.7-5-7.5-8.9,0-1.4.6-5.1,9.7-9.6,7.5-3.6,13.4-2.6,14.4-.3,1.4,3.2-3.2,9.2-10.9,10-2.9.3-4.5-.8-4.9-1.3-.4-.4-.5-.5-.6-.4-.2.1,0,.5,0,.8.6,1.1,1.6,1.9,2.8,2.2,1.4.5,4.9.7,9-.8,4.7-1.8,8.3-6.8,7.3-11-1-4.3-8.1-5.7-14.8-3.4-4.2,1.4-8.1,3.6-11.4,6.5-3.7,3.4-4.3,6.4-4.1,7.7.8,4.5,7,7.4,9.4,9.6-.1,0-.2.1-.3.2-1.2.6-5.9,3-7.1,5.6-1.3,2.9.2,5,1.2,5.3,3.1.8,6.4-.5,8.2-3.3,1.5-2.2,1.8-5,.8-7.5,0,0,0,0,0,0,.3-.2.6-.4,1-.6.6-.4,1.3-.7,1.8-1-.4,1-.6,2.1-.6,3.2-.1,1.7.4,3.4,1.4,4.7.3.3.7.4,1.2.4,1,0,1.5-.9,2-1.9.6-1.3,1.2-2.7,1.2-2.7,0,0-.7,3.9,1.2,4s1.4-.9,1.7-1.4h0s0,0,0,0v-.2c.1,0,.1,0,.1,0,.3-.5.9-1.6,1.9-3.5,1.2-2.4,2.4-5.4,2.4-5.4.1.7.3,1.3.5,2,.3.8.6,1.5,1,2.3-.3.4-.5.6-.5.6h0c-.2.3-.5.6-.8,1-.8.9-1.6,1.8-2.3,2.8-.2.3-.1.8.2,1,.4.2.8.3,1.2.2.6,0,1.2-.2,1.8-.4.5-.2,1.1-.5,1.5-.8,1-.7,1.5-1.8,1.5-3,0-.7-.2-1.5-.5-2.1,0-.1.2-.2.3-.4,1-1.5,1.9-3,2.7-4.6.1.7.3,1.3.5,2,.2.7.5,1.3.8,2-1.1.9-2,2-2.6,3.3-.6,1.6-.1,2.3.7,2.5.4,0,.9,0,1.3-.3.6-.2,1.1-.5,1.6-.8,1.1-.6,1.8-1.7,1.8-3,0-.6-.2-1.2-.4-1.8,1.5-.6,3.1-.8,4.7-.5,4.2.5,5,3.2,4.9,4.3-.2.8-.6,1.5-1.3,1.9-.3.2-.4.2-.4.4,0,.2.2.2.4.2,1.3-.4,2.2-1.6,2.3-2.9.1-2.6-2.3-5.4-6.7-5.4ZM72.9,209.6c-1.4,1.5-3.4,2.1-4.2,1.6-.9-.5-.5-2.8,1.2-4.4,1-.9,2.1-1.7,3.3-2.4.2-.1.5-.3.9-.5,0,0,.1,0,.1,0h.2c.6,2,0,4.2-1.5,5.8ZM83.1,202.7c-.5,1.2-1.5,4.2-2.1,4-.5-.1-.8-2.4,0-4.7.4-1.1,1-2.1,1.7-3,.8-.8,1.6-1.1,1.8-.8.3.5-.9,3.7-1.3,4.5h0ZM91.5,206.8c-.2.1-.4.2-.5.1,0,0,0-.2,0-.2,0,0,1.1-1.1,1.5-1.6.2-.3.5-.7.8-1h0c0,1.5-1.3,2.4-1.9,2.7ZM98,205.3c-.1-.1-.1-.5.4-1.6.4-.7.8-1.3,1.5-1.8,0,.3.1.5.1.8,0,1.2-.8,2.3-2,2.6Z"/>
    <g id="Layer_2" data-name="Layer 2">
      <g id="Layer_1-2" data-name="Layer 1">
        <path id="Path_18" data-name="Path 18" class="cls-3" d="M38.4,180.1h0l-15.5,5.6,2.3,20.6,13.1,7.4h0l13.2-7.4,2.4-20.6-15.6-5.6Z"/>
        <path id="Path_19" data-name="Path 19" class="cls-1" d="M38.4,180.1v3.7h0v16.9h0v12.9h0l13.2-7.4,2.4-20.6-15.6-5.6Z"/>
        <rect id="Rectangle_35" data-name="Rectangle 35" class="cls-2" x="42.6" y="187.7" width="5" height="5" rx="1" ry="1"/>
        <rect id="Rectangle_36" data-name="Rectangle 36" class="cls-2" x="42.6" y="194.4" width="5" height="5" rx="1" ry="1"/>
        <rect id="Rectangle_37" data-name="Rectangle 37" class="cls-2" x="42.6" y="201.1" width="5" height="5" rx="1" ry="1"/>
        <rect id="Rectangle_38" data-name="Rectangle 38" class="cls-2" x="35.9" y="201.1" width="5" height="5" rx="1" ry="1"/>
        <rect id="Rectangle_39" data-name="Rectangle 39" class="cls-2" x="29.2" y="201.1" width="5" height="5" rx="1" ry="1"/>
        <rect id="Rectangle_40" data-name="Rectangle 40" class="cls-2" x="29.2" y="194.4" width="5" height="5" rx="1" ry="1"/>
        <rect id="Rectangle_41" data-name="Rectangle 41" class="cls-2" x="35.9" y="194.4" width="5" height="5" rx="1" ry="1"/>
      </g>
    </g>
  </g>
</svg>