<svg id="Wortmarke" xmlns="http://www.w3.org/2000/svg" width="46.678" height="35.899" viewBox="0 0 46.678 35.899">
  <path id="Path_5" data-name="Path 5" d="M94.811,0V18.162h2.263V11.726h.048l3.363,6.437h2.376l-3.443-6.605,3.042-5.449h-2.344l-2.994,5.161h-.048V0ZM75.3,0V18.162h2.287V9.6l.008-.112v-.12l.008-.1.008-.112.008-.1.016-.1.016-.1.024-.1.024-.088.024-.088.032-.08.032-.072.032-.072.04-.072.04-.064.04-.064.048-.056.048-.056.048-.048.056-.048L78.2,7.9l.056-.04.064-.032.064-.032.072-.024.072-.032.072-.024.072-.016.072-.008.088-.008.088-.008H79.1l.08.008.08.008.072.016.08.008.072.024.072.024.064.024.064.024.064.032.056.032.056.048.048.04.056.048.048.048.04.056.04.056.04.056.04.056.032.072.032.064.024.072.024.072.024.072.024.088.016.088.016.088.008.1.008.1.008.1.008.1v8.868h2.223V8.7l-.008-.169L82.6,8.363,82.6,8.2l-.024-.161L82.547,7.9l-.024-.144-.032-.136-.04-.136-.04-.128-.048-.128-.048-.112L82.258,7l-.064-.1-.064-.1L82.058,6.7l-.08-.088-.08-.08-.088-.08-.088-.072-.1-.072-.1-.056L81.408,6.2,81.3,6.148l-.12-.048-.12-.04-.12-.04L80.8,6l-.136-.024-.144-.016-.144-.016-.152-.008h-.152l-.161.008-.161.008-.161.024L79.425,6l-.161.04L79.1,6.1l-.161.056-.161.072-.152.072-.152.088-.152.1-.152.1-.152.12-.144.128-.144.136-.152.144V0Zm9.478,1.188h-.064l-.056.008L84.6,1.2l-.056.008-.056.016-.064.016-.056.016-.056.024-.056.024-.056.024-.056.032L84.1,1.4l-.048.032L84,1.469l-.048.048-.048.04-.04.048-.04.048-.04.048-.032.048-.032.056-.032.048-.024.056-.024.056-.024.056-.016.056-.016.056-.016.056-.008.056L83.55,2.3v.064l-.008.056.008.064v.064l.008.056.008.064.016.056.016.056.016.056.024.056.024.064.024.048.032.056.032.048.032.056.04.04.04.048.04.048.048.04.048.04.048.048.048.032.056.032.048.032.056.032.056.024.056.024.056.024.056.016.056.008.064.008.056.008.064.008h.128l.056-.008.056-.008.056-.008.064-.008.064-.016.056-.024.056-.024.056-.024.056-.032.056-.032.048-.032.048-.032.048-.048.048-.04.048-.04.04-.048.04-.04.04-.048.032-.056.04-.048.024-.056.032-.048.024-.056.024-.056.016-.056L86,2.737l.008-.056.008-.064.008-.056V2.488l.008-.064-.008-.056V2.3l-.008-.056-.008-.056L86,2.135l-.016-.056-.016-.056-.024-.056-.024-.056-.032-.056-.024-.048-.04-.056L85.79,1.7l-.04-.048-.04-.048-.04-.04-.048-.04-.048-.048-.048-.04-.048-.04-.048-.032-.056-.032-.056-.024-.056-.024L85.2,1.26l-.056-.016-.064-.016-.064-.016L84.963,1.2,84.907,1.2l-.056-.008ZM91.448,5.9l-.177.008-.177.016-.088.008-.088.008-.088.024-.08.016L90.669,6l-.08.032-.08.024-.08.024-.072.032-.072.04-.072.04-.072.04-.072.04L90,6.316l-.072.048-.072.056-.064.048-.072.056-.064.056-.064.056-.128.128-.12.144-.112.144-.112.161h-.056V6.067H86.769V18.162h2.255V9.406l.008-.1.008-.1.008-.1.008-.088.008-.1.016-.088L89.1,8.74l.024-.08.024-.08.024-.072.032-.072.032-.072.04-.072.04-.064.04-.064.048-.056.048-.056.048-.056.056-.048.056-.048.056-.04.056-.04.064-.032.064-.032.064-.024L90,7.7l.064-.016.072-.024.072-.008.072-.008.08-.008h.161l.088.008.08.008.08.008.072.016.072.024.072.016.064.032.064.024.064.032.056.04.056.04.056.04.048.048.048.048.04.056.04.056.04.056.04.064.032.064.032.08.024.072.024.08.024.08.024.088.016.088.016.088L91.8,9l.008.1.008.1V9.31l.008.112v8.756h2.231V8.756l-.008-.177-.008-.169-.008-.161-.024-.161-.024-.152-.024-.144-.032-.144-.04-.136-.04-.128L93.8,7.255l-.056-.12-.056-.112-.064-.1-.072-.1-.072-.1-.08-.088-.088-.088-.088-.08-.1-.072-.1-.072-.1-.064L92.812,6.2,92.7,6.14l-.12-.048-.12-.04-.128-.04-.136-.024-.144-.024-.144-.024-.152-.008-.161-.008h-.144ZM83.655,18.162h2.231V6.108H83.655Z" transform="translate(-69.257)" fill="#ff584f"/>
  <path id="Path_6" data-name="Path 6" d="M73.108,296.854l.016-.385.008-.177.016-.177.008-.169.016-.161.024-.152.024-.152.024-.136.032-.128.024-.128.024-.12.032-.112.04-.1.04-.1.04-.088.048-.088.056-.08.056-.072.064-.072.064-.056.072-.056.08-.048.08-.04.088-.04.088-.024.1-.024.1-.016.1-.008.1-.008.088.008.088.008.088.008.08.024.072.024.08.032.072.04.072.04.064.056.056.056.056.064.056.072.048.072.048.08.04.088.04.1.032.1.04.112.024.12.024.12.024.128.024.144.024.152.024.152.016.161.016.169.008.185.008.193.008.4.008.433H73.116Zm1.244-4.438-.233.024-.225.032-.217.04-.209.056-.2.072-.193.08-.185.1-.177.112-.177.12-.161.128-.152.144-.144.161-.152.169-.136.185-.128.193-.112.209-.1.217-.1.233-.088.249-.088.257-.08.273-.072.281-.064.3-.064.3-.048.329-.04.337-.032.345-.032.353-.016.377-.008.385-.008.4.008.361.008.361.016.345.032.329.032.321.04.3.048.3.056.281.064.281.064.257.08.249.08.241.088.233.1.209.1.209.112.193.12.177.128.169.136.161.144.144.152.128.161.128.169.1.177.1.177.088.185.072.193.064.2.056.209.04.217.032.225.016.233.008.217-.008.209-.008.2-.024.193-.024.193-.04.185-.048.177-.056.169-.056.161-.072.161-.08.144-.088.136-.088.136-.1.128-.112.12-.12.112-.128.112-.136.1-.144.088-.153.1-.161.08-.169.072-.177.072-.185.064-.193.056-.2.048-.209.04-.225.04-.225.024-.233.024-.241.016-.257.008-.257H76l-.008.3-.016.281-.024.257-.032.241-.024.1-.024.112-.024.1-.024.1-.024.088-.024.088-.032.08-.032.072-.04.072-.04.064-.04.056-.048.056-.056.056-.056.048-.056.048-.064.04-.064.032-.072.032-.072.024-.08.024-.08.016-.088.008-.088.008h-.217l-.12-.008-.112-.024-.1-.024-.1-.032-.1-.04-.088-.048-.08-.064-.08-.064-.072-.072-.064-.08-.064-.088-.056-.1-.04-.1-.04-.112-.04-.128-.032-.12-.032-.136-.024-.144-.024-.153-.024-.16-.024-.169-.024-.169-.016-.177-.032-.393-.016-.409-.016-.441-.008-.474h5.072v-.931l-.008-.425-.008-.409-.024-.393-.024-.377-.04-.353-.04-.337-.024-.161L78,295.53l-.032-.152-.032-.144-.032-.144-.04-.136-.04-.136-.04-.12-.04-.128-.04-.12-.048-.112-.048-.112-.048-.112-.056-.1-.056-.1-.056-.088-.056-.08-.056-.088-.064-.072-.064-.072-.136-.136-.136-.128-.136-.112-.144-.112-.152-.1-.144-.088-.152-.088-.152-.072-.161-.064-.161-.056-.169-.048-.169-.04-.177-.032-.177-.024-.177-.008-.185-.008Z" transform="translate(-65.026 -268.933)" fill="#ff584f"/>
  <path id="Path_7" data-name="Path 7" d="M175.52,292.2l-.177.008-.177.016-.177.024-.169.032-.169.048-.169.056-.161.072-.161.08-.152.08-.161.1-.152.112-.144.12-.144.128-.144.144-.144.152-.136.161-.064.08-.064.1-.064.088-.056.1-.064.1-.056.1-.048.112-.056.12-.048.12-.048.12-.048.128-.04.128-.04.136-.04.136-.04.144-.032.152-.04.152-.024.152-.032.16-.024.169-.048.337-.032.361-.032.369-.024.393-.008.409-.008.425.008.4.008.385.016.369.024.361.024.345.04.337.04.313.048.3.064.3.056.273.072.265.08.257.04.12.04.112.04.112.048.112.048.1.048.1.056.1.048.1.056.088.056.1.056.08.064.088.056.08.064.08.064.072.072.072.072.072.064.064.08.064.072.064.08.056.08.048.08.056.088.048.08.048.088.04.088.04.1.04.088.032.1.032.1.032.1.024.1.024.1.016.1.016.1.016.112.008.112.008h.337l.12-.008.12-.008.12-.008.12-.024.12-.024.128-.024.128-.032.128-.032.128-.048.128-.04.136-.048.128-.056.136-.056.144-.056.136-.064v-1.87l-.217.1-.2.088-.185.072-.177.056-.169.048-.153.04-.08.008-.064.008H176l-.1-.016-.1-.016-.1-.024-.1-.04-.088-.04-.1-.056-.08-.056-.08-.072-.08-.072-.072-.088-.072-.088-.064-.1-.064-.112-.064-.12-.056-.12-.056-.128-.048-.144-.048-.144-.04-.161-.048-.161-.032-.169-.032-.185-.032-.185-.024-.193-.024-.209-.016-.217-.016-.217-.008-.225-.016-.241v-1.043l.016-.257.008-.249.016-.249.016-.225.024-.217.024-.217.032-.2.032-.2.032-.185.048-.169.04-.161.04-.161.056-.144.048-.136.064-.128.056-.12.064-.112.072-.1.08-.088.072-.088.088-.08.08-.072.088-.064.1-.048.1-.048.1-.04.1-.024.112-.024.12-.008.12-.008.12.008.128.016.144.024.152.048.169.048.169.064.185.072.193.088v-1.926l-.3-.1-.281-.088-.265-.072-.249-.064-.241-.048-.217-.032-.1-.008-.1-.008-.1-.008Z" transform="translate(-158.104 -268.749)" fill="#ff584f"/>
  <path id="Path_8" data-name="Path 8" d="M1.445,253.9v3.274H0v1.782H1.445v5.53h.016v1.308l.008.233.016.233.024.225.04.217.032.209.048.193.048.193.056.177.064.169.072.161.072.152.088.153.1.136.048.064.048.056.048.056.056.064.056.056.056.056.064.056.056.048.128.1.136.088.144.088.161.072.161.064.169.056.177.056.193.048.193.04.209.032.209.032.225.016.225.008h.241v-1.83l-.088-.008H4.952l-.08-.016-.08-.008-.072-.016-.08-.024-.072-.024-.072-.032-.064-.032-.064-.04-.056-.04-.056-.04-.048-.048-.056-.056-.048-.056-.048-.064L4,267.006l-.04-.072-.032-.072-.04-.072-.032-.08-.024-.088-.032-.088-.016-.088-.024-.1-.024-.1-.016-.1-.008-.1-.016-.112v-.112l-.008-.12v-1.2h.016v-5.53H5.169v-1.782H3.708V253.9Z" transform="translate(0 -233.523)" fill="#ff584f"/>
  <path id="Path_9" data-name="Path 9" d="M252.145,253.9v3.274H250.7v1.782h1.445V269.4h2.263V258.956h1.453v-1.782h-1.453V253.9Z" transform="translate(-230.58 -233.523)" fill="#ff584f"/>
  <path id="Path_10" data-name="Path 10" d="M491.284,297l.008-.522.016-.273.024-.281.016-.144.024-.136.024-.136.024-.136.04-.128.04-.12.04-.12.048-.12.056-.1.064-.112.064-.1.08-.1.088-.08.088-.072.1-.064.1-.056.12-.04.128-.032.128-.016.144-.008.1.008.088.008.088.008.08.024.08.024.072.04.072.04.064.04.064.056.056.056.056.064.056.072.048.072.04.08.04.088.04.088.032.1.032.112.032.12.024.12.024.128.024.144.024.152.024.152.016.161.016.169.008.185.008.193.008.4.008.433h-2.793l-.008-.449Zm1.252-4.4-.233.024-.225.032-.217.04-.209.056-.2.072-.193.08-.185.1-.177.112-.177.12-.161.128-.161.144-.144.161-.136.169-.136.185-.128.193-.112.209-.112.217-.1.233-.088.249-.088.257-.08.273-.072.281-.064.3-.056.3-.048.329-.04.337-.032.345-.024.353-.016.377-.008.385-.008.4v.361l.016.361.016.345.024.329.032.321.04.3.048.3.056.281.064.281.064.257.08.249.08.241.088.233.1.209.1.209.112.193.12.177.128.169.136.161.144.144.152.128.152.128.169.1.169.1.185.088.185.072.193.064.2.056.209.04.217.032.225.016.233.008.217-.008.2-.008.2-.024.2-.024.193-.04.185-.048.169-.056.169-.056.161-.072.161-.08.144-.088.136-.088.136-.1.128-.112.12-.12.112-.128.112-.136.1-.144.1-.153.088-.161.08-.169.072-.177.072-.185.056-.193.056-.2.048-.209.04-.225.04-.225.024-.233.024-.241.016-.257.008-.257h-2.047l-.008.3-.016.281-.024.257-.032.241-.024.1-.024.112-.024.1-.024.1-.024.088-.024.088-.032.08-.032.072-.04.072-.04.064-.04.056-.048.056-.056.056-.056.048-.056.048-.064.04-.064.032-.072.032-.072.024-.08.024-.08.016-.088.008-.1.008H492.7l-.12-.008-.1-.024-.112-.024-.1-.032-.1-.04-.088-.048-.08-.064-.08-.072-.072-.072-.064-.08-.064-.088-.056-.1-.048-.1-.04-.112-.04-.128-.032-.12-.032-.136-.024-.144-.024-.152-.024-.161-.024-.169-.024-.169-.016-.177-.032-.385-.016-.417-.016-.441-.008-.474h5.072v-.9l-.008-.4-.008-.409-.024-.393-.024-.377-.04-.353-.048-.337-.024-.161-.024-.152-.032-.152-.032-.152-.032-.144-.04-.136-.04-.136-.04-.12-.04-.128-.04-.12-.048-.112-.048-.112-.048-.112-.056-.1-.056-.1-.056-.088-.056-.08-.056-.088-.064-.072-.064-.072-.136-.136-.136-.128-.144-.112-.136-.112-.144-.1-.152-.088-.161-.088-.152-.072-.161-.064-.161-.056-.169-.048-.169-.04-.177-.032-.177-.024-.177-.008-.185-.008Z" transform="translate(-449.662 -269.117)" fill="#ff584f"/>
  <path id="Path_11" data-name="Path 11" d="M430.807,292.108l-.1.008-.1.016-.1.016-.088.024-.1.024-.088.04-.1.04-.08.04-.1.048-.08.064-.088.048-.08.072-.088.064-.08.072-.08.08-.08.08-.08.08-.072.088-.08.1-.072.1-.072.1-.072.1-.072.1-.064.112-.128.233-.128.233h-.056v-1.782H426.2v12.223h2.287v-7.624l.008-.225.008-.209.024-.2.024-.185.024-.185.032-.169.04-.161.048-.152.048-.136.056-.128.056-.112.064-.1.064-.1.04-.04.04-.048.04-.032.04-.04.088-.064.088-.064.1-.056.112-.056.112-.048.12-.056.128-.04.136-.04.144-.032.144-.032.152-.024.177-.024.16-.024.185-.016.177-.008.193-.008v-1.934l-.144-.024-.1-.016-.1-.008-.1-.008Z" transform="translate(-391.994 -268.657)" fill="#ff584f"/>
  <path id="Path_12" data-name="Path 12" d="M329.34,294.3v8.507l-.016.257-.016.128-.008.12-.016.12-.016.1-.024.1-.016.1-.032.1-.024.08-.032.088-.032.072-.032.072-.04.064-.04.064-.048.056-.048.056-.048.048-.056.04-.056.048-.064.04-.064.032-.064.032-.072.016-.08.024-.08.024-.08.008-.088.016h-.088l-.088.008-.088-.008h-.088l-.08-.016-.08-.008-.08-.016-.072-.024-.072-.024-.072-.032-.064-.032-.064-.04-.056-.04-.056-.04-.056-.048-.056-.056-.04-.056-.056-.064-.04-.056-.04-.072-.032-.072-.04-.072-.032-.08-.032-.088-.024-.088-.024-.088-.016-.1-.024-.1-.016-.1-.008-.1-.016-.112v-.112l-.008-.12V294.3H324.3v8.644l.008.241.016.233.024.225.032.217.032.209.056.193.048.193.056.177.064.169.072.161.072.152.088.153.1.136.048.064.048.056.048.056.056.064.056.056.056.056.064.056.056.048.128.1.136.088.144.088.161.072.161.064.169.056.177.056.193.048.193.04.209.032.209.032.225.016.225.008h.473l.225-.008.225-.016.209-.032.2-.032.2-.04.185-.048.177-.056.169-.064.16-.064.152-.08.145-.08.072-.04.064-.048.064-.048.056-.056.064-.048.056-.056.056-.056.056-.056.048-.056.048-.064.048-.056.048-.064.088-.144.08-.152.08-.152.072-.169.056-.177.056-.193.056-.193.04-.2.032-.217.032-.217.024-.241.016-.233.008-.249V294.3Z" transform="translate(-298.273 -270.68)" fill="#ff584f"/>
  <path id="Path_13" data-name="Path 13" d="M3.692,45.288h.016V40.264H5.169V38.483H3.708V35.2H1.445v3.283H0v1.782H1.445v5.024h.016v1.637l.008.241.016.233.024.217.04.217.032.209.048.193.048.193.056.177.064.169.072.161.072.161.088.144.1.136.048.064.048.064.048.056.056.056.056.064.056.048.064.056.056.048.128.1.136.088.144.088.161.08.161.064.169.056.177.056.193.048.193.032.209.04.209.024.225.016.225.008.241.008V48.7H5.04l-.088-.008-.08-.008-.08-.016-.072-.016-.08-.016L4.567,48.6l-.072-.024-.064-.04-.064-.032-.056-.04-.056-.048-.048-.048-.056-.056L4.1,48.266,4.053,48.2,4,48.137l-.04-.072L3.933,48l-.04-.08-.032-.08-.024-.088L3.8,47.664l-.016-.088-.024-.088-.024-.1-.016-.1-.008-.112-.016-.1V46.95l-.008-.12V45.288Z" transform="translate(0 -32.375)" fill="#ff584f"/>
</svg>
